<?xml version="1.0" encoding="utf-8" standalone="no"?>
<!DOCTYPE svg PUBLIC "-//W3C//DTD SVG 1.1//EN"
  "http://www.w3.org/Graphics/SVG/1.1/DTD/svg11.dtd">
<svg xmlns:xlink="http://www.w3.org/1999/xlink" width="280.18pt" height="215.818375pt" viewBox="0 0 280.18 215.818375" xmlns="http://www.w3.org/2000/svg" version="1.1">
 <metadata>
  <rdf:RDF xmlns:dc="http://purl.org/dc/elements/1.1/" xmlns:cc="http://creativecommons.org/ns#" xmlns:rdf="http://www.w3.org/1999/02/22-rdf-syntax-ns#">
   <cc:Work>
    <dc:type rdf:resource="http://purl.org/dc/dcmitype/StillImage"/>
    <dc:date>2025-09-28T17:40:05.284680</dc:date>
    <dc:format>image/svg+xml</dc:format>
    <dc:creator>
     <cc:Agent>
      <dc:title>Matplotlib v3.10.6, https://matplotlib.org/</dc:title>
     </cc:Agent>
    </dc:creator>
   </cc:Work>
  </rdf:RDF>
 </metadata>
 <defs>
  <style type="text/css">*{stroke-linejoin: round; stroke-linecap: butt}</style>
 </defs>
 <g id="figure_1">
  <g id="patch_1">
   <path d="M 0 215.818375 
L 280.18 215.818375 
L 280.18 0 
L 0 0 
z
" style="fill: #ffffff"/>
  </g>
  <g id="axes_1">
   <g id="patch_2">
    <path d="M 43.78125 178.262125 
L 223.67375 178.262125 
L 223.67375 22.318125 
L 43.78125 22.318125 
z
" style="fill: #ffffff"/>
   </g>
   <g id="matplotlib.axis_1">
    <g id="xtick_1">
     <g id="line2d_1">
      <path d="M 43.78125 178.262125 
L 43.78125 22.318125 
" clip-path="url(#pa730bed10d)" style="fill: none; stroke: #b0b0b0; stroke-width: 0.8; stroke-linecap: square"/>
     </g>
     <g id="line2d_2">
      <defs>
       <path id="mbfa7740473" d="M 0 0 
L 0 3.5 
" style="stroke: #000000; stroke-width: 0.8"/>
      </defs>
      <g>
       <use xlink:href="#mbfa7740473" x="43.78125" y="178.262125" style="stroke: #000000; stroke-width: 0.8"/>
      </g>
     </g>
     <g id="text_1">
      <!-- $\mathdefault{0.5}$ -->
      <g transform="translate(35.78125 192.860562) scale(0.1 -0.1)">
       <defs>
        <path id="DejaVuSans-30" d="M 2034 4250 
Q 1547 4250 1301 3770 
Q 1056 3291 1056 2328 
Q 1056 1369 1301 889 
Q 1547 409 2034 409 
Q 2525 409 2770 889 
Q 3016 1369 3016 2328 
Q 3016 3291 2770 3770 
Q 2525 4250 2034 4250 
z
M 2034 4750 
Q 2819 4750 3233 4129 
Q 3647 3509 3647 2328 
Q 3647 1150 3233 529 
Q 2819 -91 2034 -91 
Q 1250 -91 836 529 
Q 422 1150 422 2328 
Q 422 3509 836 4129 
Q 1250 4750 2034 4750 
z
" transform="scale(0.015625)"/>
        <path id="DejaVuSans-2e" d="M 684 794 
L 1344 794 
L 1344 0 
L 684 0 
L 684 794 
z
" transform="scale(0.015625)"/>
        <path id="DejaVuSans-35" d="M 691 4666 
L 3169 4666 
L 3169 4134 
L 1269 4134 
L 1269 2991 
Q 1406 3038 1543 3061 
Q 1681 3084 1819 3084 
Q 2600 3084 3056 2656 
Q 3513 2228 3513 1497 
Q 3513 744 3044 326 
Q 2575 -91 1722 -91 
Q 1428 -91 1123 -41 
Q 819 9 494 109 
L 494 744 
Q 775 591 1075 516 
Q 1375 441 1709 441 
Q 2250 441 2565 725 
Q 2881 1009 2881 1497 
Q 2881 1984 2565 2268 
Q 2250 2553 1709 2553 
Q 1456 2553 1204 2497 
Q 953 2441 691 2322 
L 691 4666 
z
" transform="scale(0.015625)"/>
       </defs>
       <use xlink:href="#DejaVuSans-30" transform="translate(0 0.78125)"/>
       <use xlink:href="#DejaVuSans-2e" transform="translate(63.623047 0.78125)"/>
       <use xlink:href="#DejaVuSans-35" transform="translate(95.410156 0.78125)"/>
      </g>
     </g>
    </g>
    <g id="xtick_2">
     <g id="line2d_3">
      <path d="M 79.75975 178.262125 
L 79.75975 22.318125 
" clip-path="url(#pa730bed10d)" style="fill: none; stroke: #b0b0b0; stroke-width: 0.8; stroke-linecap: square"/>
     </g>
     <g id="line2d_4">
      <g>
       <use xlink:href="#mbfa7740473" x="79.75975" y="178.262125" style="stroke: #000000; stroke-width: 0.8"/>
      </g>
     </g>
     <g id="text_2">
      <!-- $\mathdefault{1.0}$ -->
      <g transform="translate(71.75975 192.860562) scale(0.1 -0.1)">
       <defs>
        <path id="DejaVuSans-31" d="M 794 531 
L 1825 531 
L 1825 4091 
L 703 3866 
L 703 4441 
L 1819 4666 
L 2450 4666 
L 2450 531 
L 3481 531 
L 3481 0 
L 794 0 
L 794 531 
z
" transform="scale(0.015625)"/>
       </defs>
       <use xlink:href="#DejaVuSans-31" transform="translate(0 0.78125)"/>
       <use xlink:href="#DejaVuSans-2e" transform="translate(63.623047 0.78125)"/>
       <use xlink:href="#DejaVuSans-30" transform="translate(95.410156 0.78125)"/>
      </g>
     </g>
    </g>
    <g id="xtick_3">
     <g id="line2d_5">
      <path d="M 115.73825 178.262125 
L 115.73825 22.318125 
" clip-path="url(#pa730bed10d)" style="fill: none; stroke: #b0b0b0; stroke-width: 0.8; stroke-linecap: square"/>
     </g>
     <g id="line2d_6">
      <g>
       <use xlink:href="#mbfa7740473" x="115.73825" y="178.262125" style="stroke: #000000; stroke-width: 0.8"/>
      </g>
     </g>
     <g id="text_3">
      <!-- $\mathdefault{1.5}$ -->
      <g transform="translate(107.73825 192.860562) scale(0.1 -0.1)">
       <use xlink:href="#DejaVuSans-31" transform="translate(0 0.09375)"/>
       <use xlink:href="#DejaVuSans-2e" transform="translate(63.623047 0.09375)"/>
       <use xlink:href="#DejaVuSans-35" transform="translate(95.410156 0.09375)"/>
      </g>
     </g>
    </g>
    <g id="xtick_4">
     <g id="line2d_7">
      <path d="M 151.71675 178.262125 
L 151.71675 22.318125 
" clip-path="url(#pa730bed10d)" style="fill: none; stroke: #b0b0b0; stroke-width: 0.8; stroke-linecap: square"/>
     </g>
     <g id="line2d_8">
      <g>
       <use xlink:href="#mbfa7740473" x="151.71675" y="178.262125" style="stroke: #000000; stroke-width: 0.8"/>
      </g>
     </g>
     <g id="text_4">
      <!-- $\mathdefault{2.0}$ -->
      <g transform="translate(143.71675 192.860562) scale(0.1 -0.1)">
       <defs>
        <path id="DejaVuSans-32" d="M 1228 531 
L 3431 531 
L 3431 0 
L 469 0 
L 469 531 
Q 828 903 1448 1529 
Q 2069 2156 2228 2338 
Q 2531 2678 2651 2914 
Q 2772 3150 2772 3378 
Q 2772 3750 2511 3984 
Q 2250 4219 1831 4219 
Q 1534 4219 1204 4116 
Q 875 4013 500 3803 
L 500 4441 
Q 881 4594 1212 4672 
Q 1544 4750 1819 4750 
Q 2544 4750 2975 4387 
Q 3406 4025 3406 3419 
Q 3406 3131 3298 2873 
Q 3191 2616 2906 2266 
Q 2828 2175 2409 1742 
Q 1991 1309 1228 531 
z
" transform="scale(0.015625)"/>
       </defs>
       <use xlink:href="#DejaVuSans-32" transform="translate(0 0.78125)"/>
       <use xlink:href="#DejaVuSans-2e" transform="translate(63.623047 0.78125)"/>
       <use xlink:href="#DejaVuSans-30" transform="translate(95.410156 0.78125)"/>
      </g>
     </g>
    </g>
    <g id="xtick_5">
     <g id="line2d_9">
      <path d="M 187.69525 178.262125 
L 187.69525 22.318125 
" clip-path="url(#pa730bed10d)" style="fill: none; stroke: #b0b0b0; stroke-width: 0.8; stroke-linecap: square"/>
     </g>
     <g id="line2d_10">
      <g>
       <use xlink:href="#mbfa7740473" x="187.69525" y="178.262125" style="stroke: #000000; stroke-width: 0.8"/>
      </g>
     </g>
     <g id="text_5">
      <!-- $\mathdefault{2.5}$ -->
      <g transform="translate(179.69525 192.860562) scale(0.1 -0.1)">
       <use xlink:href="#DejaVuSans-32" transform="translate(0 0.78125)"/>
       <use xlink:href="#DejaVuSans-2e" transform="translate(63.623047 0.78125)"/>
       <use xlink:href="#DejaVuSans-35" transform="translate(95.410156 0.78125)"/>
      </g>
     </g>
    </g>
    <g id="xtick_6">
     <g id="line2d_11">
      <path d="M 223.67375 178.262125 
L 223.67375 22.318125 
" clip-path="url(#pa730bed10d)" style="fill: none; stroke: #b0b0b0; stroke-width: 0.8; stroke-linecap: square"/>
     </g>
     <g id="line2d_12">
      <g>
       <use xlink:href="#mbfa7740473" x="223.67375" y="178.262125" style="stroke: #000000; stroke-width: 0.8"/>
      </g>
     </g>
     <g id="text_6">
      <!-- $\mathdefault{3.0}$ -->
      <g transform="translate(215.67375 192.860562) scale(0.1 -0.1)">
       <defs>
        <path id="DejaVuSans-33" d="M 2597 2516 
Q 3050 2419 3304 2112 
Q 3559 1806 3559 1356 
Q 3559 666 3084 287 
Q 2609 -91 1734 -91 
Q 1441 -91 1130 -33 
Q 819 25 488 141 
L 488 750 
Q 750 597 1062 519 
Q 1375 441 1716 441 
Q 2309 441 2620 675 
Q 2931 909 2931 1356 
Q 2931 1769 2642 2001 
Q 2353 2234 1838 2234 
L 1294 2234 
L 1294 2753 
L 1863 2753 
Q 2328 2753 2575 2939 
Q 2822 3125 2822 3475 
Q 2822 3834 2567 4026 
Q 2313 4219 1838 4219 
Q 1578 4219 1281 4162 
Q 984 4106 628 3988 
L 628 4550 
Q 988 4650 1302 4700 
Q 1616 4750 1894 4750 
Q 2613 4750 3031 4423 
Q 3450 4097 3450 3541 
Q 3450 3153 3228 2886 
Q 3006 2619 2597 2516 
z
" transform="scale(0.015625)"/>
       </defs>
       <use xlink:href="#DejaVuSans-33" transform="translate(0 0.78125)"/>
       <use xlink:href="#DejaVuSans-2e" transform="translate(63.623047 0.78125)"/>
       <use xlink:href="#DejaVuSans-30" transform="translate(95.410156 0.78125)"/>
      </g>
     </g>
    </g>
    <g id="text_7">
     <!-- Train Step -->
     <g transform="translate(108.759531 206.538687) scale(0.1 -0.1)">
      <defs>
       <path id="DejaVuSans-54" d="M -19 4666 
L 3928 4666 
L 3928 4134 
L 2272 4134 
L 2272 0 
L 1638 0 
L 1638 4134 
L -19 4134 
L -19 4666 
z
" transform="scale(0.015625)"/>
       <path id="DejaVuSans-72" d="M 2631 2963 
Q 2534 3019 2420 3045 
Q 2306 3072 2169 3072 
Q 1681 3072 1420 2755 
Q 1159 2438 1159 1844 
L 1159 0 
L 581 0 
L 581 3500 
L 1159 3500 
L 1159 2956 
Q 1341 3275 1631 3429 
Q 1922 3584 2338 3584 
Q 2397 3584 2469 3576 
Q 2541 3569 2628 3553 
L 2631 2963 
z
" transform="scale(0.015625)"/>
       <path id="DejaVuSans-61" d="M 2194 1759 
Q 1497 1759 1228 1600 
Q 959 1441 959 1056 
Q 959 750 1161 570 
Q 1363 391 1709 391 
Q 2188 391 2477 730 
Q 2766 1069 2766 1631 
L 2766 1759 
L 2194 1759 
z
M 3341 1997 
L 3341 0 
L 2766 0 
L 2766 531 
Q 2569 213 2275 61 
Q 1981 -91 1556 -91 
Q 1019 -91 701 211 
Q 384 513 384 1019 
Q 384 1609 779 1909 
Q 1175 2209 1959 2209 
L 2766 2209 
L 2766 2266 
Q 2766 2663 2505 2880 
Q 2244 3097 1772 3097 
Q 1472 3097 1187 3025 
Q 903 2953 641 2809 
L 641 3341 
Q 956 3463 1253 3523 
Q 1550 3584 1831 3584 
Q 2591 3584 2966 3190 
Q 3341 2797 3341 1997 
z
" transform="scale(0.015625)"/>
       <path id="DejaVuSans-69" d="M 603 3500 
L 1178 3500 
L 1178 0 
L 603 0 
L 603 3500 
z
M 603 4863 
L 1178 4863 
L 1178 4134 
L 603 4134 
L 603 4863 
z
" transform="scale(0.015625)"/>
       <path id="DejaVuSans-6e" d="M 3513 2113 
L 3513 0 
L 2938 0 
L 2938 2094 
Q 2938 2591 2744 2837 
Q 2550 3084 2163 3084 
Q 1697 3084 1428 2787 
Q 1159 2491 1159 1978 
L 1159 0 
L 581 0 
L 581 3500 
L 1159 3500 
L 1159 2956 
Q 1366 3272 1645 3428 
Q 1925 3584 2291 3584 
Q 2894 3584 3203 3211 
Q 3513 2838 3513 2113 
z
" transform="scale(0.015625)"/>
       <path id="DejaVuSans-20" transform="scale(0.015625)"/>
       <path id="DejaVuSans-53" d="M 3425 4513 
L 3425 3897 
Q 3066 4069 2747 4153 
Q 2428 4238 2131 4238 
Q 1616 4238 1336 4038 
Q 1056 3838 1056 3469 
Q 1056 3159 1242 3001 
Q 1428 2844 1947 2747 
L 2328 2669 
Q 3034 2534 3370 2195 
Q 3706 1856 3706 1288 
Q 3706 609 3251 259 
Q 2797 -91 1919 -91 
Q 1588 -91 1214 -16 
Q 841 59 441 206 
L 441 856 
Q 825 641 1194 531 
Q 1563 422 1919 422 
Q 2459 422 2753 634 
Q 3047 847 3047 1241 
Q 3047 1584 2836 1778 
Q 2625 1972 2144 2069 
L 1759 2144 
Q 1053 2284 737 2584 
Q 422 2884 422 3419 
Q 422 4038 858 4394 
Q 1294 4750 2059 4750 
Q 2388 4750 2728 4690 
Q 3069 4631 3425 4513 
z
" transform="scale(0.015625)"/>
       <path id="DejaVuSans-74" d="M 1172 4494 
L 1172 3500 
L 2356 3500 
L 2356 3053 
L 1172 3053 
L 1172 1153 
Q 1172 725 1289 603 
Q 1406 481 1766 481 
L 2356 481 
L 2356 0 
L 1766 0 
Q 1100 0 847 248 
Q 594 497 594 1153 
L 594 3053 
L 172 3053 
L 172 3500 
L 594 3500 
L 594 4494 
L 1172 4494 
z
" transform="scale(0.015625)"/>
       <path id="DejaVuSans-65" d="M 3597 1894 
L 3597 1613 
L 953 1613 
Q 991 1019 1311 708 
Q 1631 397 2203 397 
Q 2534 397 2845 478 
Q 3156 559 3463 722 
L 3463 178 
Q 3153 47 2828 -22 
Q 2503 -91 2169 -91 
Q 1331 -91 842 396 
Q 353 884 353 1716 
Q 353 2575 817 3079 
Q 1281 3584 2069 3584 
Q 2775 3584 3186 3129 
Q 3597 2675 3597 1894 
z
M 3022 2063 
Q 3016 2534 2758 2815 
Q 2500 3097 2075 3097 
Q 1594 3097 1305 2825 
Q 1016 2553 972 2059 
L 3022 2063 
z
" transform="scale(0.015625)"/>
       <path id="DejaVuSans-70" d="M 1159 525 
L 1159 -1331 
L 581 -1331 
L 581 3500 
L 1159 3500 
L 1159 2969 
Q 1341 3281 1617 3432 
Q 1894 3584 2278 3584 
Q 2916 3584 3314 3078 
Q 3713 2572 3713 1747 
Q 3713 922 3314 415 
Q 2916 -91 2278 -91 
Q 1894 -91 1617 61 
Q 1341 213 1159 525 
z
M 3116 1747 
Q 3116 2381 2855 2742 
Q 2594 3103 2138 3103 
Q 1681 3103 1420 2742 
Q 1159 2381 1159 1747 
Q 1159 1113 1420 752 
Q 1681 391 2138 391 
Q 2594 391 2855 752 
Q 3116 1113 3116 1747 
z
" transform="scale(0.015625)"/>
      </defs>
      <use xlink:href="#DejaVuSans-54"/>
      <use xlink:href="#DejaVuSans-72" transform="translate(46.333984 0)"/>
      <use xlink:href="#DejaVuSans-61" transform="translate(87.447266 0)"/>
      <use xlink:href="#DejaVuSans-69" transform="translate(148.726562 0)"/>
      <use xlink:href="#DejaVuSans-6e" transform="translate(176.509766 0)"/>
      <use xlink:href="#DejaVuSans-20" transform="translate(239.888672 0)"/>
      <use xlink:href="#DejaVuSans-53" transform="translate(271.675781 0)"/>
      <use xlink:href="#DejaVuSans-74" transform="translate(335.152344 0)"/>
      <use xlink:href="#DejaVuSans-65" transform="translate(374.361328 0)"/>
      <use xlink:href="#DejaVuSans-70" transform="translate(435.884766 0)"/>
     </g>
    </g>
    <g id="text_8">
     <!-- $\times\mathdefault{10^{4}}\mathdefault{}$ -->
     <g transform="translate(197.67375 205.538687) scale(0.1 -0.1)">
      <defs>
       <path id="DejaVuSans-d7" d="M 4488 3438 
L 3059 2003 
L 4488 575 
L 4116 197 
L 2681 1631 
L 1247 197 
L 878 575 
L 2303 2003 
L 878 3438 
L 1247 3816 
L 2681 2381 
L 4116 3816 
L 4488 3438 
z
" transform="scale(0.015625)"/>
       <path id="DejaVuSans-34" d="M 2419 4116 
L 825 1625 
L 2419 1625 
L 2419 4116 
z
M 2253 4666 
L 3047 4666 
L 3047 1625 
L 3713 1625 
L 3713 1100 
L 3047 1100 
L 3047 0 
L 2419 0 
L 2419 1100 
L 313 1100 
L 313 1709 
L 2253 4666 
z
" transform="scale(0.015625)"/>
      </defs>
      <use xlink:href="#DejaVuSans-d7" transform="translate(0 0.684375)"/>
      <use xlink:href="#DejaVuSans-31" transform="translate(83.789062 0.684375)"/>
      <use xlink:href="#DejaVuSans-30" transform="translate(147.412109 0.684375)"/>
      <use xlink:href="#DejaVuSans-34" transform="translate(211.992188 38.965625) scale(0.7)"/>
     </g>
    </g>
   </g>
   <g id="matplotlib.axis_2">
    <g id="ytick_1">
     <g id="line2d_13">
      <path d="M 43.78125 178.262125 
L 223.67375 178.262125 
" clip-path="url(#pa730bed10d)" style="fill: none; stroke: #b0b0b0; stroke-width: 0.8; stroke-linecap: square"/>
     </g>
     <g id="line2d_14">
      <defs>
       <path id="mbd138ffb2e" d="M 0 0 
L -3.5 0 
" style="stroke: #000000; stroke-width: 0.8"/>
      </defs>
      <g>
       <use xlink:href="#mbd138ffb2e" x="43.78125" y="178.262125" style="stroke: #000000; stroke-width: 0.8"/>
      </g>
     </g>
     <g id="text_9">
      <!-- 0.4 -->
      <g transform="translate(20.878125 182.061344) scale(0.1 -0.1)">
       <use xlink:href="#DejaVuSans-30"/>
       <use xlink:href="#DejaVuSans-2e" transform="translate(63.623047 0)"/>
       <use xlink:href="#DejaVuSans-34" transform="translate(95.410156 0)"/>
      </g>
     </g>
    </g>
    <g id="ytick_2">
     <g id="line2d_15">
      <path d="M 43.78125 154.27074 
L 223.67375 154.27074 
" clip-path="url(#pa730bed10d)" style="fill: none; stroke: #b0b0b0; stroke-width: 0.8; stroke-linecap: square"/>
     </g>
     <g id="line2d_16">
      <g>
       <use xlink:href="#mbd138ffb2e" x="43.78125" y="154.27074" style="stroke: #000000; stroke-width: 0.8"/>
      </g>
     </g>
     <g id="text_10">
      <!-- 0.5 -->
      <g transform="translate(20.878125 158.069959) scale(0.1 -0.1)">
       <use xlink:href="#DejaVuSans-30"/>
       <use xlink:href="#DejaVuSans-2e" transform="translate(63.623047 0)"/>
       <use xlink:href="#DejaVuSans-35" transform="translate(95.410156 0)"/>
      </g>
     </g>
    </g>
    <g id="ytick_3">
     <g id="line2d_17">
      <path d="M 43.78125 130.279356 
L 223.67375 130.279356 
" clip-path="url(#pa730bed10d)" style="fill: none; stroke: #b0b0b0; stroke-width: 0.8; stroke-linecap: square"/>
     </g>
     <g id="line2d_18">
      <g>
       <use xlink:href="#mbd138ffb2e" x="43.78125" y="130.279356" style="stroke: #000000; stroke-width: 0.8"/>
      </g>
     </g>
     <g id="text_11">
      <!-- 0.6 -->
      <g transform="translate(20.878125 134.078575) scale(0.1 -0.1)">
       <defs>
        <path id="DejaVuSans-36" d="M 2113 2584 
Q 1688 2584 1439 2293 
Q 1191 2003 1191 1497 
Q 1191 994 1439 701 
Q 1688 409 2113 409 
Q 2538 409 2786 701 
Q 3034 994 3034 1497 
Q 3034 2003 2786 2293 
Q 2538 2584 2113 2584 
z
M 3366 4563 
L 3366 3988 
Q 3128 4100 2886 4159 
Q 2644 4219 2406 4219 
Q 1781 4219 1451 3797 
Q 1122 3375 1075 2522 
Q 1259 2794 1537 2939 
Q 1816 3084 2150 3084 
Q 2853 3084 3261 2657 
Q 3669 2231 3669 1497 
Q 3669 778 3244 343 
Q 2819 -91 2113 -91 
Q 1303 -91 875 529 
Q 447 1150 447 2328 
Q 447 3434 972 4092 
Q 1497 4750 2381 4750 
Q 2619 4750 2861 4703 
Q 3103 4656 3366 4563 
z
" transform="scale(0.015625)"/>
       </defs>
       <use xlink:href="#DejaVuSans-30"/>
       <use xlink:href="#DejaVuSans-2e" transform="translate(63.623047 0)"/>
       <use xlink:href="#DejaVuSans-36" transform="translate(95.410156 0)"/>
      </g>
     </g>
    </g>
    <g id="ytick_4">
     <g id="line2d_19">
      <path d="M 43.78125 106.287971 
L 223.67375 106.287971 
" clip-path="url(#pa730bed10d)" style="fill: none; stroke: #b0b0b0; stroke-width: 0.8; stroke-linecap: square"/>
     </g>
     <g id="line2d_20">
      <g>
       <use xlink:href="#mbd138ffb2e" x="43.78125" y="106.287971" style="stroke: #000000; stroke-width: 0.8"/>
      </g>
     </g>
     <g id="text_12">
      <!-- 0.7 -->
      <g transform="translate(20.878125 110.08719) scale(0.1 -0.1)">
       <defs>
        <path id="DejaVuSans-37" d="M 525 4666 
L 3525 4666 
L 3525 4397 
L 1831 0 
L 1172 0 
L 2766 4134 
L 525 4134 
L 525 4666 
z
" transform="scale(0.015625)"/>
       </defs>
       <use xlink:href="#DejaVuSans-30"/>
       <use xlink:href="#DejaVuSans-2e" transform="translate(63.623047 0)"/>
       <use xlink:href="#DejaVuSans-37" transform="translate(95.410156 0)"/>
      </g>
     </g>
    </g>
    <g id="ytick_5">
     <g id="line2d_21">
      <path d="M 43.78125 82.296587 
L 223.67375 82.296587 
" clip-path="url(#pa730bed10d)" style="fill: none; stroke: #b0b0b0; stroke-width: 0.8; stroke-linecap: square"/>
     </g>
     <g id="line2d_22">
      <g>
       <use xlink:href="#mbd138ffb2e" x="43.78125" y="82.296587" style="stroke: #000000; stroke-width: 0.8"/>
      </g>
     </g>
     <g id="text_13">
      <!-- 0.8 -->
      <g transform="translate(20.878125 86.095805) scale(0.1 -0.1)">
       <defs>
        <path id="DejaVuSans-38" d="M 2034 2216 
Q 1584 2216 1326 1975 
Q 1069 1734 1069 1313 
Q 1069 891 1326 650 
Q 1584 409 2034 409 
Q 2484 409 2743 651 
Q 3003 894 3003 1313 
Q 3003 1734 2745 1975 
Q 2488 2216 2034 2216 
z
M 1403 2484 
Q 997 2584 770 2862 
Q 544 3141 544 3541 
Q 544 4100 942 4425 
Q 1341 4750 2034 4750 
Q 2731 4750 3128 4425 
Q 3525 4100 3525 3541 
Q 3525 3141 3298 2862 
Q 3072 2584 2669 2484 
Q 3125 2378 3379 2068 
Q 3634 1759 3634 1313 
Q 3634 634 3220 271 
Q 2806 -91 2034 -91 
Q 1263 -91 848 271 
Q 434 634 434 1313 
Q 434 1759 690 2068 
Q 947 2378 1403 2484 
z
M 1172 3481 
Q 1172 3119 1398 2916 
Q 1625 2713 2034 2713 
Q 2441 2713 2670 2916 
Q 2900 3119 2900 3481 
Q 2900 3844 2670 4047 
Q 2441 4250 2034 4250 
Q 1625 4250 1398 4047 
Q 1172 3844 1172 3481 
z
" transform="scale(0.015625)"/>
       </defs>
       <use xlink:href="#DejaVuSans-30"/>
       <use xlink:href="#DejaVuSans-2e" transform="translate(63.623047 0)"/>
       <use xlink:href="#DejaVuSans-38" transform="translate(95.410156 0)"/>
      </g>
     </g>
    </g>
    <g id="ytick_6">
     <g id="line2d_23">
      <path d="M 43.78125 58.305202 
L 223.67375 58.305202 
" clip-path="url(#pa730bed10d)" style="fill: none; stroke: #b0b0b0; stroke-width: 0.8; stroke-linecap: square"/>
     </g>
     <g id="line2d_24">
      <g>
       <use xlink:href="#mbd138ffb2e" x="43.78125" y="58.305202" style="stroke: #000000; stroke-width: 0.8"/>
      </g>
     </g>
     <g id="text_14">
      <!-- 0.9 -->
      <g transform="translate(20.878125 62.104421) scale(0.1 -0.1)">
       <defs>
        <path id="DejaVuSans-39" d="M 703 97 
L 703 672 
Q 941 559 1184 500 
Q 1428 441 1663 441 
Q 2288 441 2617 861 
Q 2947 1281 2994 2138 
Q 2813 1869 2534 1725 
Q 2256 1581 1919 1581 
Q 1219 1581 811 2004 
Q 403 2428 403 3163 
Q 403 3881 828 4315 
Q 1253 4750 1959 4750 
Q 2769 4750 3195 4129 
Q 3622 3509 3622 2328 
Q 3622 1225 3098 567 
Q 2575 -91 1691 -91 
Q 1453 -91 1209 -44 
Q 966 3 703 97 
z
M 1959 2075 
Q 2384 2075 2632 2365 
Q 2881 2656 2881 3163 
Q 2881 3666 2632 3958 
Q 2384 4250 1959 4250 
Q 1534 4250 1286 3958 
Q 1038 3666 1038 3163 
Q 1038 2656 1286 2365 
Q 1534 2075 1959 2075 
z
" transform="scale(0.015625)"/>
       </defs>
       <use xlink:href="#DejaVuSans-30"/>
       <use xlink:href="#DejaVuSans-2e" transform="translate(63.623047 0)"/>
       <use xlink:href="#DejaVuSans-39" transform="translate(95.410156 0)"/>
      </g>
     </g>
    </g>
    <g id="ytick_7">
     <g id="line2d_25">
      <path d="M 43.78125 34.313817 
L 223.67375 34.313817 
" clip-path="url(#pa730bed10d)" style="fill: none; stroke: #b0b0b0; stroke-width: 0.8; stroke-linecap: square"/>
     </g>
     <g id="line2d_26">
      <g>
       <use xlink:href="#mbd138ffb2e" x="43.78125" y="34.313817" style="stroke: #000000; stroke-width: 0.8"/>
      </g>
     </g>
     <g id="text_15">
      <!-- 1.0 -->
      <g transform="translate(20.878125 38.113036) scale(0.1 -0.1)">
       <use xlink:href="#DejaVuSans-31"/>
       <use xlink:href="#DejaVuSans-2e" transform="translate(63.623047 0)"/>
       <use xlink:href="#DejaVuSans-30" transform="translate(95.410156 0)"/>
      </g>
     </g>
    </g>
    <g id="text_16">
     <!-- Success Rate -->
     <g transform="translate(14.798438 133.469031) rotate(-90) scale(0.1 -0.1)">
      <defs>
       <path id="DejaVuSans-75" d="M 544 1381 
L 544 3500 
L 1119 3500 
L 1119 1403 
Q 1119 906 1312 657 
Q 1506 409 1894 409 
Q 2359 409 2629 706 
Q 2900 1003 2900 1516 
L 2900 3500 
L 3475 3500 
L 3475 0 
L 2900 0 
L 2900 538 
Q 2691 219 2414 64 
Q 2138 -91 1772 -91 
Q 1169 -91 856 284 
Q 544 659 544 1381 
z
M 1991 3584 
L 1991 3584 
z
" transform="scale(0.015625)"/>
       <path id="DejaVuSans-63" d="M 3122 3366 
L 3122 2828 
Q 2878 2963 2633 3030 
Q 2388 3097 2138 3097 
Q 1578 3097 1268 2742 
Q 959 2388 959 1747 
Q 959 1106 1268 751 
Q 1578 397 2138 397 
Q 2388 397 2633 464 
Q 2878 531 3122 666 
L 3122 134 
Q 2881 22 2623 -34 
Q 2366 -91 2075 -91 
Q 1284 -91 818 406 
Q 353 903 353 1747 
Q 353 2603 823 3093 
Q 1294 3584 2113 3584 
Q 2378 3584 2631 3529 
Q 2884 3475 3122 3366 
z
" transform="scale(0.015625)"/>
       <path id="DejaVuSans-73" d="M 2834 3397 
L 2834 2853 
Q 2591 2978 2328 3040 
Q 2066 3103 1784 3103 
Q 1356 3103 1142 2972 
Q 928 2841 928 2578 
Q 928 2378 1081 2264 
Q 1234 2150 1697 2047 
L 1894 2003 
Q 2506 1872 2764 1633 
Q 3022 1394 3022 966 
Q 3022 478 2636 193 
Q 2250 -91 1575 -91 
Q 1294 -91 989 -36 
Q 684 19 347 128 
L 347 722 
Q 666 556 975 473 
Q 1284 391 1588 391 
Q 1994 391 2212 530 
Q 2431 669 2431 922 
Q 2431 1156 2273 1281 
Q 2116 1406 1581 1522 
L 1381 1569 
Q 847 1681 609 1914 
Q 372 2147 372 2553 
Q 372 3047 722 3315 
Q 1072 3584 1716 3584 
Q 2034 3584 2315 3537 
Q 2597 3491 2834 3397 
z
" transform="scale(0.015625)"/>
       <path id="DejaVuSans-52" d="M 2841 2188 
Q 3044 2119 3236 1894 
Q 3428 1669 3622 1275 
L 4263 0 
L 3584 0 
L 2988 1197 
Q 2756 1666 2539 1819 
Q 2322 1972 1947 1972 
L 1259 1972 
L 1259 0 
L 628 0 
L 628 4666 
L 2053 4666 
Q 2853 4666 3247 4331 
Q 3641 3997 3641 3322 
Q 3641 2881 3436 2590 
Q 3231 2300 2841 2188 
z
M 1259 4147 
L 1259 2491 
L 2053 2491 
Q 2509 2491 2742 2702 
Q 2975 2913 2975 3322 
Q 2975 3731 2742 3939 
Q 2509 4147 2053 4147 
L 1259 4147 
z
" transform="scale(0.015625)"/>
      </defs>
      <use xlink:href="#DejaVuSans-53"/>
      <use xlink:href="#DejaVuSans-75" transform="translate(63.476562 0)"/>
      <use xlink:href="#DejaVuSans-63" transform="translate(126.855469 0)"/>
      <use xlink:href="#DejaVuSans-63" transform="translate(181.835938 0)"/>
      <use xlink:href="#DejaVuSans-65" transform="translate(236.816406 0)"/>
      <use xlink:href="#DejaVuSans-73" transform="translate(298.339844 0)"/>
      <use xlink:href="#DejaVuSans-73" transform="translate(350.439453 0)"/>
      <use xlink:href="#DejaVuSans-20" transform="translate(402.539062 0)"/>
      <use xlink:href="#DejaVuSans-52" transform="translate(434.326172 0)"/>
      <use xlink:href="#DejaVuSans-61" transform="translate(501.558594 0)"/>
      <use xlink:href="#DejaVuSans-74" transform="translate(562.837891 0)"/>
      <use xlink:href="#DejaVuSans-65" transform="translate(602.046875 0)"/>
     </g>
    </g>
   </g>
   <g id="patch_3">
    <path d="M 43.78125 178.262125 
L 43.78125 22.318125 
" style="fill: none; stroke: #000000; stroke-width: 0.8; stroke-linejoin: miter; stroke-linecap: square"/>
   </g>
   <g id="patch_4">
    <path d="M 223.67375 178.262125 
L 223.67375 22.318125 
" style="fill: none; stroke: #000000; stroke-width: 0.8; stroke-linejoin: miter; stroke-linecap: square"/>
   </g>
   <g id="patch_5">
    <path d="M 43.78125 178.262125 
L 223.67375 178.262125 
" style="fill: none; stroke: #000000; stroke-width: 0.8; stroke-linejoin: miter; stroke-linecap: square"/>
   </g>
   <g id="patch_6">
    <path d="M 43.78125 22.318125 
L 223.67375 22.318125 
" style="fill: none; stroke: #000000; stroke-width: 0.8; stroke-linejoin: miter; stroke-linecap: square"/>
   </g>
   <g id="line2d_27">
    <path d="M 43.78125 106.287971 
L 79.75975 34.313817 
L 115.73825 34.313817 
L 151.71675 34.313817 
L 187.69525 34.313817 
L 223.666554 34.313817 
" clip-path="url(#pa730bed10d)" style="fill: none; stroke: #1f77b4; stroke-width: 1.5; stroke-linecap: square"/>
   </g>
   <g id="line2d_28">
    <path d="M 43.78125 82.296587 
L 79.75975 48.708648 
L 115.73825 51.107787 
L 151.71675 43.910371 
L 187.69525 39.112094 
L 223.666554 41.511233 
" clip-path="url(#pa730bed10d)" style="fill: none; stroke: #ff7f0e; stroke-width: 1.5; stroke-linecap: square"/>
   </g>
   <g id="text_17">
    <!-- Trained on Real+Sim Domain -->
    <g transform="translate(46.075 16.318125) scale(0.12 -0.12)">
     <defs>
      <path id="DejaVuSans-64" d="M 2906 2969 
L 2906 4863 
L 3481 4863 
L 3481 0 
L 2906 0 
L 2906 525 
Q 2725 213 2448 61 
Q 2172 -91 1784 -91 
Q 1150 -91 751 415 
Q 353 922 353 1747 
Q 353 2572 751 3078 
Q 1150 3584 1784 3584 
Q 2172 3584 2448 3432 
Q 2725 3281 2906 2969 
z
M 947 1747 
Q 947 1113 1208 752 
Q 1469 391 1925 391 
Q 2381 391 2643 752 
Q 2906 1113 2906 1747 
Q 2906 2381 2643 2742 
Q 2381 3103 1925 3103 
Q 1469 3103 1208 2742 
Q 947 2381 947 1747 
z
" transform="scale(0.015625)"/>
      <path id="DejaVuSans-6f" d="M 1959 3097 
Q 1497 3097 1228 2736 
Q 959 2375 959 1747 
Q 959 1119 1226 758 
Q 1494 397 1959 397 
Q 2419 397 2687 759 
Q 2956 1122 2956 1747 
Q 2956 2369 2687 2733 
Q 2419 3097 1959 3097 
z
M 1959 3584 
Q 2709 3584 3137 3096 
Q 3566 2609 3566 1747 
Q 3566 888 3137 398 
Q 2709 -91 1959 -91 
Q 1206 -91 779 398 
Q 353 888 353 1747 
Q 353 2609 779 3096 
Q 1206 3584 1959 3584 
z
" transform="scale(0.015625)"/>
      <path id="DejaVuSans-6c" d="M 603 4863 
L 1178 4863 
L 1178 0 
L 603 0 
L 603 4863 
z
" transform="scale(0.015625)"/>
      <path id="DejaVuSans-2b" d="M 2944 4013 
L 2944 2272 
L 4684 2272 
L 4684 1741 
L 2944 1741 
L 2944 0 
L 2419 0 
L 2419 1741 
L 678 1741 
L 678 2272 
L 2419 2272 
L 2419 4013 
L 2944 4013 
z
" transform="scale(0.015625)"/>
      <path id="DejaVuSans-6d" d="M 3328 2828 
Q 3544 3216 3844 3400 
Q 4144 3584 4550 3584 
Q 5097 3584 5394 3201 
Q 5691 2819 5691 2113 
L 5691 0 
L 5113 0 
L 5113 2094 
Q 5113 2597 4934 2840 
Q 4756 3084 4391 3084 
Q 3944 3084 3684 2787 
Q 3425 2491 3425 1978 
L 3425 0 
L 2847 0 
L 2847 2094 
Q 2847 2600 2669 2842 
Q 2491 3084 2119 3084 
Q 1678 3084 1418 2786 
Q 1159 2488 1159 1978 
L 1159 0 
L 581 0 
L 581 3500 
L 1159 3500 
L 1159 2956 
Q 1356 3278 1631 3431 
Q 1906 3584 2284 3584 
Q 2666 3584 2933 3390 
Q 3200 3197 3328 2828 
z
" transform="scale(0.015625)"/>
      <path id="DejaVuSans-44" d="M 1259 4147 
L 1259 519 
L 2022 519 
Q 2988 519 3436 956 
Q 3884 1394 3884 2338 
Q 3884 3275 3436 3711 
Q 2988 4147 2022 4147 
L 1259 4147 
z
M 628 4666 
L 1925 4666 
Q 3281 4666 3915 4102 
Q 4550 3538 4550 2338 
Q 4550 1131 3912 565 
Q 3275 0 1925 0 
L 628 0 
L 628 4666 
z
" transform="scale(0.015625)"/>
     </defs>
     <use xlink:href="#DejaVuSans-54"/>
     <use xlink:href="#DejaVuSans-72" transform="translate(46.333984 0)"/>
     <use xlink:href="#DejaVuSans-61" transform="translate(87.447266 0)"/>
     <use xlink:href="#DejaVuSans-69" transform="translate(148.726562 0)"/>
     <use xlink:href="#DejaVuSans-6e" transform="translate(176.509766 0)"/>
     <use xlink:href="#DejaVuSans-65" transform="translate(239.888672 0)"/>
     <use xlink:href="#DejaVuSans-64" transform="translate(301.412109 0)"/>
     <use xlink:href="#DejaVuSans-20" transform="translate(364.888672 0)"/>
     <use xlink:href="#DejaVuSans-6f" transform="translate(396.675781 0)"/>
     <use xlink:href="#DejaVuSans-6e" transform="translate(457.857422 0)"/>
     <use xlink:href="#DejaVuSans-20" transform="translate(521.236328 0)"/>
     <use xlink:href="#DejaVuSans-52" transform="translate(553.023438 0)"/>
     <use xlink:href="#DejaVuSans-65" transform="translate(618.005859 0)"/>
     <use xlink:href="#DejaVuSans-61" transform="translate(679.529297 0)"/>
     <use xlink:href="#DejaVuSans-6c" transform="translate(740.808594 0)"/>
     <use xlink:href="#DejaVuSans-2b" transform="translate(768.591797 0)"/>
     <use xlink:href="#DejaVuSans-53" transform="translate(852.380859 0)"/>
     <use xlink:href="#DejaVuSans-69" transform="translate(915.857422 0)"/>
     <use xlink:href="#DejaVuSans-6d" transform="translate(943.640625 0)"/>
     <use xlink:href="#DejaVuSans-20" transform="translate(1041.052734 0)"/>
     <use xlink:href="#DejaVuSans-44" transform="translate(1072.839844 0)"/>
     <use xlink:href="#DejaVuSans-6f" transform="translate(1149.841797 0)"/>
     <use xlink:href="#DejaVuSans-6d" transform="translate(1211.023438 0)"/>
     <use xlink:href="#DejaVuSans-61" transform="translate(1308.435547 0)"/>
     <use xlink:href="#DejaVuSans-69" transform="translate(1369.714844 0)"/>
     <use xlink:href="#DejaVuSans-6e" transform="translate(1397.498047 0)"/>
    </g>
   </g>
   <g id="legend_1">
    <g id="patch_7">
     <path d="M 146.640938 123.807312 
L 216.67375 123.807312 
Q 218.67375 123.807312 218.67375 121.807312 
L 218.67375 78.772937 
Q 218.67375 76.772937 216.67375 76.772937 
L 146.640938 76.772937 
Q 144.640938 76.772937 144.640938 78.772937 
L 144.640938 121.807312 
Q 144.640938 123.807312 146.640938 123.807312 
z
" style="fill: #ffffff; opacity: 0.8; stroke: #cccccc; stroke-linejoin: miter"/>
    </g>
    <g id="line2d_29">
     <path d="M 148.640938 84.871375 
L 158.640938 84.871375 
L 168.640938 84.871375 
" style="fill: none; stroke: #1f77b4; stroke-width: 1.5; stroke-linecap: square"/>
    </g>
    <g id="text_18">
     <!-- SR Real -->
     <g transform="translate(176.640938 88.371375) scale(0.1 -0.1)">
      <use xlink:href="#DejaVuSans-53"/>
      <use xlink:href="#DejaVuSans-52" transform="translate(63.476562 0)"/>
      <use xlink:href="#DejaVuSans-20" transform="translate(132.958984 0)"/>
      <use xlink:href="#DejaVuSans-52" transform="translate(164.746094 0)"/>
      <use xlink:href="#DejaVuSans-65" transform="translate(229.728516 0)"/>
      <use xlink:href="#DejaVuSans-61" transform="translate(291.251953 0)"/>
      <use xlink:href="#DejaVuSans-6c" transform="translate(352.53125 0)"/>
     </g>
    </g>
    <g id="line2d_30">
     <path d="M 148.640938 99.5495 
L 158.640938 99.5495 
L 168.640938 99.5495 
" style="fill: none; stroke: #ff7f0e; stroke-width: 1.5; stroke-linecap: square"/>
    </g>
    <g id="text_19">
     <!-- SR Sim -->
     <g transform="translate(176.640938 103.0495) scale(0.1 -0.1)">
      <use xlink:href="#DejaVuSans-53"/>
      <use xlink:href="#DejaVuSans-52" transform="translate(63.476562 0)"/>
      <use xlink:href="#DejaVuSans-20" transform="translate(132.958984 0)"/>
      <use xlink:href="#DejaVuSans-53" transform="translate(164.746094 0)"/>
      <use xlink:href="#DejaVuSans-69" transform="translate(228.222656 0)"/>
      <use xlink:href="#DejaVuSans-6d" transform="translate(256.005859 0)"/>
     </g>
    </g>
    <g id="line2d_31">
     <path d="M 148.640938 114.227625 
L 158.640938 114.227625 
L 168.640938 114.227625 
" style="fill: none; stroke: #7f7f7f; stroke-opacity: 0.8; stroke-width: 1.5; stroke-linecap: square"/>
    </g>
    <g id="text_20">
     <!-- Loss -->
     <g transform="translate(176.640938 117.727625) scale(0.1 -0.1)">
      <defs>
       <path id="DejaVuSans-4c" d="M 628 4666 
L 1259 4666 
L 1259 531 
L 3531 531 
L 3531 0 
L 628 0 
L 628 4666 
z
" transform="scale(0.015625)"/>
      </defs>
      <use xlink:href="#DejaVuSans-4c"/>
      <use xlink:href="#DejaVuSans-6f" transform="translate(53.962891 0)"/>
      <use xlink:href="#DejaVuSans-73" transform="translate(115.144531 0)"/>
      <use xlink:href="#DejaVuSans-73" transform="translate(167.244141 0)"/>
     </g>
    </g>
   </g>
  </g>
  <g id="axes_2">
   <g id="line2d_32">
    <path d="M 11.540372 -1 
L 12.12017 6.030276 
L 12.501204 -1 
M 13.40374 -1 
L 13.55931 0.722897 
L 13.622694 -1 
M 15.686484 -1 
L 15.71802 -0.432833 
L 16.43759 6.956493 
L 17.15716 6.401872 
L 17.87673 9.316766 
L 18.5963 23.513319 
L 19.31587 14.90009 
L 20.75501 37.326831 
L 21.47458 38.453049 
L 22.19415 36.541971 
L 22.91372 35.999666 
L 24.35286 42.862286 
L 25.07243 48.853311 
L 25.792 45.752765 
L 26.51157 53.324127 
L 27.23114 39.096422 
L 27.95071 48.446714 
L 28.67028 51.59831 
L 29.38985 52.004196 
L 30.10942 58.922919 
L 30.82899 45.424086 
L 31.54856 60.405135 
L 32.26813 61.418681 
L 32.9877 60.401977 
L 33.70727 64.0497 
L 34.42684 60.506022 
L 35.14641 38.913093 
L 35.86598 70.35934 
L 36.58555 71.485783 
L 37.30512 68.450484 
L 38.02469 70.125695 
L 38.74426 68.766383 
L 39.46383 70.493449 
L 40.1834 71.530929 
L 40.90297 75.325375 
L 41.62254 74.294358 
L 42.34211 77.402043 
L 43.06168 71.778837 
L 43.78125 69.243404 
L 44.50082 82.007462 
L 45.22039 75.787939 
L 45.93996 76.052774 
L 46.65953 72.660568 
L 47.3791 72.489359 
L 48.09867 81.784142 
L 48.81824 79.721294 
L 49.53781 81.079183 
L 50.25738 82.835507 
L 50.97695 64.611095 
L 51.69652 90.087659 
L 53.13566 83.27964 
L 53.85523 88.532208 
L 54.5748 90.527755 
L 55.29437 84.491307 
L 56.01394 80.683616 
L 56.73351 84.638698 
L 57.45308 84.38907 
L 58.17265 90.291931 
L 58.89222 90.146137 
L 59.61179 87.263058 
L 60.33136 82.861831 
L 61.05093 86.08616 
L 62.49007 94.982464 
L 63.20964 97.319689 
L 63.92921 90.778531 
L 64.64878 91.032088 
L 65.36835 76.658974 
L 66.08792 95.660287 
L 66.80749 100.557888 
L 67.52706 99.306623 
L 68.24663 97.528957 
L 68.9662 102.993269 
L 69.68577 98.251083 
L 70.40534 97.592584 
L 71.12491 102.910812 
L 71.84448 99.515949 
L 72.56405 99.507627 
L 73.28362 94.623779 
L 74.00319 107.272027 
L 74.72276 97.441351 
L 76.1619 108.129598 
L 76.88147 106.439864 
L 77.60104 109.316045 
L 78.32061 100.525152 
L 79.04018 98.074703 
L 79.75975 105.941479 
L 80.47932 109.348926 
L 81.19889 108.392182 
L 81.91846 107.876237 
L 82.63803 107.172055 
L 83.3576 110.018797 
L 84.07717 95.488678 
L 84.79674 112.330874 
L 85.51631 111.274746 
L 86.23588 116.421286 
L 86.95545 110.098858 
L 87.67502 109.83708 
L 88.39459 113.160183 
L 89.11416 113.758316 
L 89.83373 116.121472 
L 90.5533 117.876547 
L 91.27287 117.601332 
L 91.99244 118.722616 
L 92.71201 118.503159 
L 93.43158 114.028349 
L 94.15115 120.700273 
L 94.87072 121.255935 
L 95.59029 118.579179 
L 96.30986 120.151709 
L 97.02943 119.06242 
L 97.749 120.588657 
L 98.46857 117.60925 
L 99.18814 118.373226 
L 99.90771 121.655151 
L 100.62728 122.947103 
L 101.34685 121.389347 
L 102.06642 120.95945 
L 102.78599 124.95587 
L 103.50556 126.281524 
L 104.22513 123.913648 
L 104.9447 127.484034 
L 105.66427 121.356684 
L 106.38384 126.46709 
L 107.10341 125.257946 
L 108.54255 129.548719 
L 109.26212 129.325592 
L 109.98169 129.462973 
L 110.70126 130.176221 
L 111.42083 129.113042 
L 112.1404 130.823632 
L 112.85997 130.767473 
L 113.57954 130.23507 
L 114.29911 132.763092 
L 115.01868 131.632012 
L 115.73825 127.641221 
L 116.45782 133.012165 
L 117.17739 134.912082 
L 117.89696 132.881687 
L 118.61653 129.563199 
L 119.3361 134.830352 
L 120.05567 133.404472 
L 120.77524 132.781831 
L 121.49481 136.072852 
L 122.21438 137.489462 
L 122.93395 132.991923 
L 123.65352 138.759194 
L 124.37309 134.771841 
L 125.09266 136.642221 
L 125.81223 136.672596 
L 126.5318 137.189271 
L 127.25137 137.527162 
L 127.97094 139.437332 
L 128.69051 137.712092 
L 129.41008 139.072155 
L 130.12965 139.363851 
L 131.56879 141.898136 
L 132.28836 141.896495 
L 133.00793 141.27246 
L 133.7275 141.008875 
L 134.44707 142.40171 
L 135.16664 143.390715 
L 135.88621 140.918844 
L 136.60578 143.271474 
L 137.32535 141.15001 
L 138.04492 143.826385 
L 138.76449 144.299819 
L 139.48406 141.335568 
L 140.20363 144.161752 
L 140.9232 143.019431 
L 141.64277 146.694517 
L 142.36234 141.04913 
L 143.08191 146.742872 
L 143.80148 146.444093 
L 144.52105 147.198987 
L 145.24062 146.670615 
L 145.96019 147.256322 
L 146.67976 147.626629 
L 147.39933 145.055799 
L 148.1189 147.603323 
L 149.55804 148.473488 
L 150.27761 147.110641 
L 151.71675 149.974311 
L 152.43632 148.182905 
L 153.15589 149.031884 
L 153.87546 148.813349 
L 154.59503 149.361114 
L 155.3146 148.03672 
L 156.03417 150.964878 
L 156.75374 149.0264 
L 157.47331 150.65901 
L 158.19288 151.239093 
L 158.91245 152.095659 
L 159.63202 153.624575 
L 160.35159 154.550781 
L 161.07116 151.259018 
L 161.79073 153.209848 
L 162.5103 151.941981 
L 163.22987 153.691548 
L 163.94944 153.318847 
L 164.66901 154.36432 
L 165.38858 153.796052 
L 166.10815 154.940083 
L 166.82772 154.282906 
L 167.54729 154.717107 
L 168.26686 154.156038 
L 168.98643 155.066569 
L 169.706 154.903388 
L 170.42557 154.918605 
L 171.14514 156.627263 
L 171.86471 155.753716 
L 172.58428 157.513721 
L 173.30385 155.251095 
L 174.02342 155.171317 
L 174.74299 154.866186 
L 175.46256 156.680965 
L 176.18213 156.400325 
L 176.9017 158.070709 
L 177.62127 156.333432 
L 178.34084 157.844356 
L 179.06041 157.142909 
L 179.77998 155.489164 
L 180.49955 159.416981 
L 181.21912 157.5504 
L 181.93869 158.063269 
L 182.65826 158.220596 
L 183.37783 160.451262 
L 184.0974 157.041073 
L 184.81697 159.775956 
L 185.53654 158.952077 
L 186.25611 158.820624 
L 186.97568 158.498914 
L 187.69525 159.843586 
L 189.13439 160.088326 
L 189.85396 159.441974 
L 190.57353 161.106003 
L 191.2931 159.814514 
L 192.01267 159.933876 
L 192.73224 159.319131 
L 193.45181 161.732249 
L 194.17138 161.751569 
L 194.89095 160.212795 
L 195.61052 162.680247 
L 196.33009 159.772285 
L 197.04966 161.503451 
L 198.4888 160.966504 
L 199.20837 160.974537 
L 199.92794 162.834722 
L 200.64751 160.979573 
L 201.36708 162.646422 
L 202.08665 160.472423 
L 202.80622 163.41993 
L 203.52579 162.086897 
L 204.24536 162.927405 
L 204.96493 162.027966 
L 205.6845 163.741885 
L 206.40407 163.62422 
L 207.12364 161.72831 
L 207.84321 161.882882 
L 208.56278 161.287911 
L 209.28235 161.888795 
L 210.00192 163.607561 
L 210.72149 162.702038 
L 211.44106 164.596282 
L 212.16063 160.934102 
L 212.8802 163.325163 
L 213.59977 163.031434 
L 214.31934 162.331059 
L 215.03891 163.582534 
L 215.75848 164.007822 
L 216.47805 163.277544 
L 217.19762 163.295528 
L 217.91719 164.165626 
L 218.63676 163.246993 
L 219.35633 163.386433 
L 220.0759 163.867534 
L 220.79547 164.61674 
L 221.51504 162.468332 
L 222.23461 163.994298 
L 222.95418 163.091262 
L 222.95418 163.091262 
" clip-path="url(#pa730bed10d)" style="fill: none; stroke: #7f7f7f; stroke-opacity: 0.8; stroke-width: 1.5; stroke-linecap: square"/>
   </g>
   <g id="matplotlib.axis_3">
    <g id="ytick_8">
     <g id="line2d_33">
      <defs>
       <path id="m04ac4d033c" d="M 0 0 
L 3.5 0 
" style="stroke: #000000; stroke-width: 0.8"/>
      </defs>
      <g>
       <use xlink:href="#m04ac4d033c" x="223.67375" y="178.262125" style="stroke: #000000; stroke-width: 0.8"/>
      </g>
     </g>
     <g id="text_21">
      <!-- 0.000 -->
      <g transform="translate(230.67375 182.061344) scale(0.1 -0.1)">
       <use xlink:href="#DejaVuSans-30"/>
       <use xlink:href="#DejaVuSans-2e" transform="translate(63.623047 0)"/>
       <use xlink:href="#DejaVuSans-30" transform="translate(95.410156 0)"/>
       <use xlink:href="#DejaVuSans-30" transform="translate(159.033203 0)"/>
       <use xlink:href="#DejaVuSans-30" transform="translate(222.65625 0)"/>
      </g>
     </g>
    </g>
    <g id="ytick_9">
     <g id="line2d_34">
      <g>
       <use xlink:href="#m04ac4d033c" x="223.67375" y="139.276125" style="stroke: #000000; stroke-width: 0.8"/>
      </g>
     </g>
     <g id="text_22">
      <!-- 0.005 -->
      <g transform="translate(230.67375 143.075344) scale(0.1 -0.1)">
       <use xlink:href="#DejaVuSans-30"/>
       <use xlink:href="#DejaVuSans-2e" transform="translate(63.623047 0)"/>
       <use xlink:href="#DejaVuSans-30" transform="translate(95.410156 0)"/>
       <use xlink:href="#DejaVuSans-30" transform="translate(159.033203 0)"/>
       <use xlink:href="#DejaVuSans-35" transform="translate(222.65625 0)"/>
      </g>
     </g>
    </g>
    <g id="ytick_10">
     <g id="line2d_35">
      <g>
       <use xlink:href="#m04ac4d033c" x="223.67375" y="100.290125" style="stroke: #000000; stroke-width: 0.8"/>
      </g>
     </g>
     <g id="text_23">
      <!-- 0.010 -->
      <g transform="translate(230.67375 104.089344) scale(0.1 -0.1)">
       <use xlink:href="#DejaVuSans-30"/>
       <use xlink:href="#DejaVuSans-2e" transform="translate(63.623047 0)"/>
       <use xlink:href="#DejaVuSans-30" transform="translate(95.410156 0)"/>
       <use xlink:href="#DejaVuSans-31" transform="translate(159.033203 0)"/>
       <use xlink:href="#DejaVuSans-30" transform="translate(222.65625 0)"/>
      </g>
     </g>
    </g>
    <g id="ytick_11">
     <g id="line2d_36">
      <g>
       <use xlink:href="#m04ac4d033c" x="223.67375" y="61.304125" style="stroke: #000000; stroke-width: 0.8"/>
      </g>
     </g>
     <g id="text_24">
      <!-- 0.015 -->
      <g transform="translate(230.67375 65.103344) scale(0.1 -0.1)">
       <use xlink:href="#DejaVuSans-30"/>
       <use xlink:href="#DejaVuSans-2e" transform="translate(63.623047 0)"/>
       <use xlink:href="#DejaVuSans-30" transform="translate(95.410156 0)"/>
       <use xlink:href="#DejaVuSans-31" transform="translate(159.033203 0)"/>
       <use xlink:href="#DejaVuSans-35" transform="translate(222.65625 0)"/>
      </g>
     </g>
    </g>
    <g id="ytick_12">
     <g id="line2d_37">
      <g>
       <use xlink:href="#m04ac4d033c" x="223.67375" y="22.318125" style="stroke: #000000; stroke-width: 0.8"/>
      </g>
     </g>
     <g id="text_25">
      <!-- 0.020 -->
      <g transform="translate(230.67375 26.117344) scale(0.1 -0.1)">
       <use xlink:href="#DejaVuSans-30"/>
       <use xlink:href="#DejaVuSans-2e" transform="translate(63.623047 0)"/>
       <use xlink:href="#DejaVuSans-30" transform="translate(95.410156 0)"/>
       <use xlink:href="#DejaVuSans-32" transform="translate(159.033203 0)"/>
       <use xlink:href="#DejaVuSans-30" transform="translate(222.65625 0)"/>
      </g>
     </g>
    </g>
    <g id="text_26">
     <!-- Loss -->
     <g transform="translate(270.900313 111.257312) rotate(-90) scale(0.1 -0.1)">
      <use xlink:href="#DejaVuSans-4c"/>
      <use xlink:href="#DejaVuSans-6f" transform="translate(53.962891 0)"/>
      <use xlink:href="#DejaVuSans-73" transform="translate(115.144531 0)"/>
      <use xlink:href="#DejaVuSans-73" transform="translate(167.244141 0)"/>
     </g>
    </g>
   </g>
   <g id="patch_8">
    <path d="M 43.78125 178.262125 
L 43.78125 22.318125 
" style="fill: none; stroke: #000000; stroke-width: 0.8; stroke-linejoin: miter; stroke-linecap: square"/>
   </g>
   <g id="patch_9">
    <path d="M 223.67375 178.262125 
L 223.67375 22.318125 
" style="fill: none; stroke: #000000; stroke-width: 0.8; stroke-linejoin: miter; stroke-linecap: square"/>
   </g>
   <g id="patch_10">
    <path d="M 43.78125 178.262125 
L 223.67375 178.262125 
" style="fill: none; stroke: #000000; stroke-width: 0.8; stroke-linejoin: miter; stroke-linecap: square"/>
   </g>
   <g id="patch_11">
    <path d="M 43.78125 22.318125 
L 223.67375 22.318125 
" style="fill: none; stroke: #000000; stroke-width: 0.8; stroke-linejoin: miter; stroke-linecap: square"/>
   </g>
  </g>
 </g>
 <defs>
  <clipPath id="pa730bed10d">
   <rect x="43.78125" y="22.318125" width="179.8925" height="155.944"/>
  </clipPath>
 </defs>
</svg>
